<svg class="img-fluid" id="outputsvg" xmlns="http://www.w3.org/2000/svg" style="transform: matrix(0.856831, 0, 0, 0.856831, -0.856831, 3.42732); transform-origin: 50% 50%; cursor: move; transition: transform 200ms ease-in-out;" width="200" height="237" viewBox="0 0 2000 2370"><g id="l3MWzvdmyLlIjbJFMr7fzEB" fill="rgb(0,0,0)" style="transform: none; --darkreader-inline-fill: #e8e6e3;" data-darkreader-inline-fill=""><g style="transform: none;"><path id="p1DUn0j8gw" d="M575 2095 c-226 -130 -418 -245 -428 -257 -15 -18 -17 -42 -16 -192 0 -94 4 -179 8 -190 9 -23 833 -506 863 -506 11 0 48 16 82 36 33 21 76 46 94 56 l32 20 0 -95 0 -96 -100 -60 c-56 -34 -105 -61 -109 -61 -4 0 -124 66 -266 146 -141 81 -267 146 -280 147 -37 0 -312 -160 -319 -186 -3 -12 -6 -90 -6 -172 0 -116 3 -155 15 -171 13 -20 789 -469 842 -487 19 -7 86 28 416 219 215 125 404 236 420 246 l27 19 0 659 0 659 -27 19 c-69 48 -799 476 -817 479 -13 2 -174 -85 -431 -232z m417 -7 l3 -153 255 -156 255 -157 3 -470 2 -471 125 -66 c69 -36 125 -69 125 -73 -1 -4 -157 -97 -347 -207 -190 -110 -361 -209 -379 -219 l-32 -19 -396 224 -395 224 -1 145 0 145 107 60 c60 33 113 61 120 63 9 3 13 -33 15 -138 l3 -142 270 -149 c149 -82 273 -149 278 -149 4 0 7 65 7 143 l0 144 133 80 132 80 0 164 c0 149 -2 164 -18 167 -10 2 -71 -28 -137 -66 l-119 -70 -396 231 -395 230 2 161 3 160 380 218 c209 120 383 218 387 218 4 0 9 -69 10 -152z"></path><path id="p5pOc07wI" d="M857 1554 c-75 -41 -135 -79 -132 -84 3 -4 64 -40 137 -80 102 -55 137 -69 149 -62 9 6 56 32 105 58 49 26 99 56 111 67 l23 20 -108 65 c-59 35 -114 70 -123 78 -8 8 -17 14 -20 14 -2 0 -66 -34 -142 -76z"></path></g></g></svg>